<svg width="59" height="68" viewBox="0 0 59 68" fill="none" xmlns="http://www.w3.org/2000/svg">
<g clip-path="url(#clip0_4574_4641)">
<path d="M2.25195 20.9858V47.046C2.25195 48.6994 3.13375 50.2425 4.58241 51.0613L27.1312 64.0835C28.5641 64.9181 30.3434 64.9181 31.7763 64.0835L54.3408 51.0613C55.7737 50.2268 56.6713 48.6994 56.6713 47.046V20.9858C56.6713 19.3325 55.7895 17.7893 54.3408 16.9548L31.7763 3.93256C30.3434 3.098 28.5641 3.098 27.1312 3.93256L4.56666 16.9548C3.14949 17.7893 2.25195 19.3167 2.25195 20.9858Z" fill="#05163D"/>
<path d="M34.3907 39.0615L31.1627 47.8794C31.0682 48.1156 31.0682 48.399 31.1627 48.6352L36.6896 63.8147L43.0984 60.1143L35.4142 39.0457C35.241 38.5733 34.5639 38.5733 34.3907 39.0615Z" fill="#12AAFF"/>
<path d="M40.8283 24.2128C40.6551 23.7246 39.978 23.7246 39.7891 24.2128L36.5611 33.0307C36.4666 33.2827 36.4666 33.5504 36.5611 33.7866L45.631 58.65L52.0397 54.9496L40.8283 24.2128Z" fill="#12AAFF"/>
<path d="M29.4652 4.89202C29.6226 4.89202 29.7801 4.93926 29.9218 5.01799L54.3286 19.111C54.6121 19.2684 54.7853 19.5676 54.7853 19.8983V48.0842C54.7853 48.4149 54.6121 48.7141 54.3286 48.8715L29.9218 62.9802C29.7801 63.059 29.6226 63.1062 29.4652 63.1062C29.3077 63.1062 29.1502 63.059 29.0085 62.9802L4.60171 48.8873C4.31828 48.7298 4.14507 48.4306 4.14507 48.1V19.8983C4.14507 19.5676 4.31828 19.2684 4.60171 19.111L29.0085 5.01799C29.1502 4.93926 29.3077 4.89202 29.4652 4.89202ZM29.4652 0.782227C28.5991 0.782227 27.7173 1.01842 26.9458 1.45932L2.53894 15.5523C0.995804 16.4498 0.0195312 18.1032 0.0195312 19.8983V48.0842C0.0195312 49.8793 0.980058 51.5484 2.53894 52.4459L26.9458 66.5389C27.7173 66.9956 28.5834 67.216 29.4652 67.216C30.347 67.216 31.213 66.9798 31.9846 66.5389L56.3914 52.4459C57.9503 51.5484 58.9108 49.895 58.9108 48.0842V19.8983C58.9108 18.1032 57.9503 16.4341 56.3914 15.5365L31.9846 1.45932C31.1973 1.01842 30.3312 0.782227 29.4652 0.782227Z" fill="#9DCCED"/>
<path d="M13.3223 58.6821L15.574 52.541L20.0774 56.2886L15.8732 60.1465L13.3223 58.6821Z" fill="#05163D"/>
<path d="M27.3981 17.8984H21.2098C20.7531 17.8984 20.328 18.1819 20.1705 18.6228L6.91211 54.9968L13.3209 58.6972L27.9335 18.6385C28.0594 18.2764 27.7917 17.8984 27.3981 17.8984Z" fill="white"/>
<path d="M38.2309 17.8984H32.0426C31.5859 17.8984 31.1608 18.1819 31.0033 18.6228L15.8711 60.1458L22.2799 63.8462L38.7505 18.6385C38.8922 18.2764 38.6088 17.8984 38.2309 17.8984Z" fill="white"/>
</g>
<defs>
<clipPath id="clip0_4574_4641">
<rect width="58.8913" height="66.4338" fill="white" transform="translate(0.0195312 0.782227)"/>
</clipPath>
</defs>
</svg>